<?xml version="1.0" encoding="iso-8859-1"?>
<!-- Generator: Adobe Illustrator 19.0.0, SVG Export Plug-In . SVG Version: 6.00 Build 0)  -->
<svg version="1.1" id="Capa_1" xmlns="http://www.w3.org/2000/svg" xmlns:xlink="http://www.w3.org/1999/xlink" x="0px" y="0px"
	 viewBox="0 0 400 400" style="enable-background:new 0 0 400 400;" xml:space="preserve">
<path style="fill:#FFDC69;" d="M32,144h48v56v104v32c0,17.68,14.32,32,32,32h24h24c0,17.672,14.328,32,32,32h96
	c17.672,0,32-14.328,32-32h24h24c17.672,0,32-14.328,32-32V88v-8L320,0h-8H112C94.328,0,80,14.328,80,32v8H32
	C14.328,40,0,54.328,0,72v40C0,129.672,14.328,144,32,144z M240,144c17.672,0,32-14.328,32-32C272,129.68,257.68,144,240,144z
	 M272,72c0-17.672-14.328-32-32-32C257.68,40,272,54.32,272,72z"/>
<path style="fill:#FF8C5A;" d="M272,72v40c0,17.672-14.328,32-32,32H32c-17.672,0-32-14.328-32-32V72c0-17.672,14.328-32,32-32h208
	C257.672,40,272,54.328,272,72z"/>
<path style="fill:#FEEC9F;" d="M288,400h-96c-17.672,0-32-14.328-32-32v-80c0-17.672,14.328-32,32-32h96c17.672,0,32,14.328,32,32
	v80C320,385.672,305.672,400,288,400z"/>
<path style="fill:#FFB855;" d="M320,0h-8v56c0,17.672,14.328,32,32,32h56v-8L320,0z"/>
<g>
	<polygon style="fill:#FFFFFF;" points="232,368 208,368 208,352 216,352 216,306.584 272,284.184 272,360 248,360 248,344 256,344 
		256,307.816 232,317.416 	"/>
	<rect x="24" y="104" style="fill:#FFFFFF;" width="16" height="16"/>
	<path style="fill:#FFFFFF;" d="M53.376,119.96h14.84v-16.824c0-3.6-0.504-8.472-1.032-12.88l2.24,6.536l7.704,18.752h6.456
		l7.72-18.792l2.44-6.84c-0.536,4.488-1.072,9.528-1.072,13.224v16.824h15.008V64.168H91.432l-8.368,23.048l-2.368,6.976l-2.376-7
		l-8.496-22.48l-0.208-0.544h-16.24V119.96z"/>
	<path style="fill:#FFFFFF;" d="M156.76,95.64h-5.664V65.504h-19.144l-18.224,31.384l-0.12,0.192v11.056h22.48v11.824h15.008
		v-11.824h5.664V95.64z M129.344,95.64l4.224-7.896c0.944-1.992,1.912-4.024,2.832-6.072c-0.16,3.024-0.32,6.32-0.32,8.808v5.16
		H129.344z"/>
	<path style="fill:#FFFFFF;" d="M191.304,64.168h-18.56l-16.664,54.704l-0.328,1.088H172.2l2.664-11.488h13.832l2.664,11.488h16.944
		L191.304,64.168z M185.696,95.72h-7.84l0.656-2.696c1.104-4.288,2.216-9.528,3.216-14.272c0.376,1.592,0.744,3.232,1.112,4.88
		c0.728,3.216,1.472,6.536,2.2,9.376L185.696,95.72z"/>
</g>
<g>
</g>
<g>
</g>
<g>
</g>
<g>
</g>
<g>
</g>
<g>
</g>
<g>
</g>
<g>
</g>
<g>
</g>
<g>
</g>
<g>
</g>
<g>
</g>
<g>
</g>
<g>
</g>
<g>
</g>
</svg>
