<?xml version="1.0" encoding="iso-8859-1"?>
<!-- Generator: Adobe Illustrator 19.0.0, SVG Export Plug-In . SVG Version: 6.00 Build 0)  -->
<svg version="1.1" id="Capa_1" xmlns="http://www.w3.org/2000/svg" xmlns:xlink="http://www.w3.org/1999/xlink" x="0px" y="0px"
	 viewBox="0 0 400 400" style="enable-background:new 0 0 400 400;" xml:space="preserve">
<path style="fill:#FFDC69;" d="M312,0H112C94.328,0,80,14.328,80,32v8H32C14.328,40,0,54.328,0,72v40c0,17.672,14.328,32,32,32h48
	v56v104v32c0,17.68,14.32,32,32,32h24h24c0,17.672,14.328,32,32,32h96c17.672,0,32-14.328,32-32h24h24c17.672,0,32-14.328,32-32V88
	v-8L320,0H312z M272,72c0-17.672-14.328-32-32-32C257.68,40,272,54.32,272,72z M272,112c0,17.68-14.32,32-32,32
	C257.672,144,272,129.672,272,112z"/>
<path style="fill:#FF8C5A;" d="M272,72v40c0,17.672-14.328,32-32,32H32c-17.672,0-32-14.328-32-32V72c0-17.672,14.328-32,32-32h208
	C257.672,40,272,54.328,272,72z"/>
<path style="fill:#FEEC9F;" d="M288,400h-96c-17.672,0-32-14.328-32-32v-80c0-17.672,14.328-32,32-32h96c17.672,0,32,14.328,32,32
	v80C320,385.672,305.672,400,288,400z"/>
<path style="fill:#FFB855;" d="M320,0h-8v56c0,17.672,14.328,32,32,32h56v-8L320,0z"/>
<g>
	<polygon style="fill:#FFFFFF;" points="232,368 208,368 208,352 216,352 216,306.584 272,284.184 272,360 248,360 248,344 256,344 
		256,307.816 232,317.416 	"/>
	<rect x="24" y="104" style="fill:#FFFFFF;" width="16" height="16"/>
	<path style="fill:#FFFFFF;" d="M77.024,120.96c15.784,0,25.984-11.44,25.984-29.144c0-17.672-9.952-28.648-25.984-28.648
		S51.04,74.144,51.04,91.816C51.048,109.52,61.248,120.96,77.024,120.96z M77.024,77.168c6.04,0,9.656,5.48,9.656,14.648
		c0,9.336-3.696,15.144-9.656,15.144s-9.648-5.808-9.648-15.144C67.376,82.648,70.984,77.168,77.024,77.168z"/>
	<path style="fill:#FFFFFF;" d="M136.936,77.168c4.056,0,6.208,1.216,8.768,3.456l0.632,0.552l8.904-10.04l-0.56-0.56
		c-4.776-4.776-11.136-7.408-17.912-7.408c-16.568,0-28.144,12.056-28.144,29.312c0,17.304,10.92,28.48,27.816,28.48
		c8.08,0,15.208-3.536,19.184-6.856l0.304-0.248v-27.04H133.6v13.336h7.992v6.168c-0.824,0.4-2.064,0.648-3.32,0.648
		c-8.96,0-13.312-4.896-13.312-14.984C124.952,83.12,129.768,77.168,136.936,77.168z"/>
	<path style="fill:#FFFFFF;" d="M190.68,77.168c4.056,0,6.208,1.216,8.768,3.456l0.632,0.552l8.904-10.04l-0.56-0.56
		c-4.776-4.776-11.136-7.408-17.912-7.408c-16.568,0-28.144,12.056-28.144,29.312c0,17.304,10.92,28.48,27.816,28.48
		c8.08,0,15.208-3.536,19.184-6.856l0.304-0.248v-27.04h-22.328v13.336h7.992v6.168c-0.824,0.4-2.072,0.648-3.328,0.648
		c-8.96,0-13.312-4.896-13.312-14.984C178.696,83.12,183.512,77.168,190.68,77.168z"/>
</g>
<g>
</g>
<g>
</g>
<g>
</g>
<g>
</g>
<g>
</g>
<g>
</g>
<g>
</g>
<g>
</g>
<g>
</g>
<g>
</g>
<g>
</g>
<g>
</g>
<g>
</g>
<g>
</g>
<g>
</g>
</svg>
