<?xml version="1.0" encoding="iso-8859-1"?>
<!-- Generator: Adobe Illustrator 19.0.0, SVG Export Plug-In . SVG Version: 6.00 Build 0)  -->
<svg version="1.1" id="Capa_1" xmlns="http://www.w3.org/2000/svg" xmlns:xlink="http://www.w3.org/1999/xlink" x="0px" y="0px"
	 viewBox="0 0 400 400" style="enable-background:new 0 0 400 400;" xml:space="preserve">
<path style="fill:#FFDC69;" d="M32,144h48v56v104v32c0,17.68,14.32,32,32,32h24h24c0,17.672,14.328,32,32,32h96
	c17.672,0,32-14.328,32-32h24h24c17.672,0,32-14.328,32-32V88v-8L320,0h-8H112C94.328,0,80,14.328,80,32v8H32
	C14.328,40,0,54.328,0,72v40C0,129.672,14.328,144,32,144z M240,144c17.672,0,32-14.328,32-32C272,129.68,257.68,144,240,144z
	 M272,72c0-17.672-14.328-32-32-32C257.68,40,272,54.32,272,72z"/>
<path style="fill:#FF8C5A;" d="M272,72v40c0,17.672-14.328,32-32,32H32c-17.672,0-32-14.328-32-32V72c0-17.672,14.328-32,32-32h208
	C257.672,40,272,54.328,272,72z"/>
<path style="fill:#FEEC9F;" d="M288,400h-96c-17.672,0-32-14.328-32-32v-80c0-17.672,14.328-32,32-32h96c17.672,0,32,14.328,32,32
	v80C320,385.672,305.672,400,288,400z"/>
<path style="fill:#FFB855;" d="M320,0h-8v56c0,17.672,14.328,32,32,32h56v-8L320,0z"/>
<g>
	<polygon style="fill:#FFFFFF;" points="232,368 208,368 208,352 216,352 216,306.584 272,284.184 272,360 248,360 248,344 256,344 
		256,307.816 232,317.416 	"/>
	<rect x="24" y="104" style="fill:#FFFFFF;" width="16" height="16"/>
	<path style="fill:#FFFFFF;" d="M65.376,108.472H79.2l2.664,11.488h12.992h3.96h12.488l2.664-11.488H127.8l2.664,11.488h16.944
		l-16.992-55.792h-18.56L96.84,113.456L81.832,64.168H63.264L46.6,118.872l-0.328,1.088h16.456L65.376,108.472z M76.208,95.72H68.36
		l0.656-2.696c1.112-4.288,2.224-9.552,3.224-14.28c0.376,1.608,0.744,3.272,1.12,4.928c0.72,3.2,1.464,6.512,2.192,9.336
		L76.208,95.72z M124.8,95.72h-7.84l0.656-2.696c1.104-4.288,2.216-9.528,3.216-14.272c0.376,1.592,0.744,3.232,1.112,4.88
		c0.728,3.216,1.472,6.536,2.2,9.376L124.8,95.72z"/>
	<path style="fill:#FFFFFF;" d="M174.376,120.96c7.096,0,13.528-2.944,18.128-8.288l0.48-0.56l-8.936-9.888l-0.624,0.664
		c-2.544,2.736-5.448,4.064-8.864,4.064c-6.776,0-10.816-5.6-10.816-14.984c0-8.72,4.576-14.816,11.144-14.816
		c3.32,0,5.504,1.328,7.936,3.456l0.632,0.552l8.904-10.04l-0.56-0.56c-4.704-4.704-10.928-7.408-17.08-7.408
		c-13.576,0-27.32,10.072-27.32,29.312C147.392,109.784,157.984,120.96,174.376,120.96z"/>
</g>
<g>
</g>
<g>
</g>
<g>
</g>
<g>
</g>
<g>
</g>
<g>
</g>
<g>
</g>
<g>
</g>
<g>
</g>
<g>
</g>
<g>
</g>
<g>
</g>
<g>
</g>
<g>
</g>
<g>
</g>
</svg>
