<?xml version="1.0" encoding="iso-8859-1"?>
<!-- Generator: Adobe Illustrator 19.0.0, SVG Export Plug-In . SVG Version: 6.00 Build 0)  -->
<svg version="1.1" id="Capa_1" xmlns="http://www.w3.org/2000/svg" xmlns:xlink="http://www.w3.org/1999/xlink" x="0px" y="0px"
	 viewBox="0 0 400 400" style="enable-background:new 0 0 400 400;" xml:space="preserve">
<path style="fill:#FFDC69;" d="M312,0H112C94.328,0,80,14.328,80,32v8H32C14.328,40,0,54.328,0,72v40c0,17.672,14.328,32,32,32h48
	v56v104v32c0,17.68,14.32,32,32,32h24h24c0,17.672,14.328,32,32,32h96c17.672,0,32-14.328,32-32h24h24c17.672,0,32-14.328,32-32V88
	v-8L320,0H312z M272,72c0-17.672-14.328-32-32-32C257.68,40,272,54.32,272,72z M272,112c0,17.68-14.32,32-32,32
	C257.672,144,272,129.672,272,112z"/>
<path style="fill:#FF8C5A;" d="M272,72v40c0,17.672-14.328,32-32,32H32c-17.672,0-32-14.328-32-32V72c0-17.672,14.328-32,32-32h208
	C257.672,40,272,54.328,272,72z"/>
<path style="fill:#FEEC9F;" d="M288,400h-96c-17.672,0-32-14.328-32-32v-80c0-17.672,14.328-32,32-32h96c17.672,0,32,14.328,32,32
	v80C320,385.672,305.672,400,288,400z"/>
<path style="fill:#FFB855;" d="M320,0h-8v56c0,17.672,14.328,32,32,32h56v-8L320,0z"/>
<g>
	<polygon style="fill:#FFFFFF;" points="232,368 208,368 208,352 216,352 216,306.584 272,284.184 272,360 248,360 248,344 256,344 
		256,307.816 232,317.416 	"/>
	<rect x="24" y="104" style="fill:#FFFFFF;" width="16" height="16"/>
	<polygon style="fill:#FFFFFF;" points="90.352,77.832 90.352,64.168 53.376,64.168 53.376,119.96 69.376,119.96 69.376,100.152 
		87.36,100.152 87.36,86.48 69.376,86.48 69.376,77.832 	"/>
	<path style="fill:#FFFFFF;" d="M97.968,64.168v55.792h36.152h0.336h16.12l2.664-11.488h13.816l2.664,11.488h16.952l-16.816-55.2
		l-0.184-0.592h-18.56l-16.664,54.696v-12.568h-20.48V64.168C113.968,64.168,97.968,64.168,97.968,64.168z M164.064,95.72h-7.848
		l0.656-2.696c1.112-4.288,2.224-9.544,3.224-14.28c0.368,1.6,0.744,3.256,1.112,4.912c0.72,3.208,1.464,6.52,2.192,9.352
		L164.064,95.72z"/>
	<path style="fill:#FFFFFF;" d="M186.664,92.48c0,17.304,10.592,28.48,26.984,28.48c7.088,0,13.528-2.944,18.12-8.288l0.488-0.56
		l-8.944-9.888l-0.624,0.664c-2.552,2.736-5.456,4.064-8.88,4.064c-6.768,0-10.816-5.6-10.816-14.984
		c0-8.72,4.584-14.816,11.152-14.816c3.328,0,5.504,1.328,7.936,3.456l0.632,0.552l8.904-10.04l-0.56-0.56
		c-4.704-4.704-10.928-7.408-17.08-7.408C200.4,63.168,186.664,73.24,186.664,92.48z"/>
</g>
<g>
</g>
<g>
</g>
<g>
</g>
<g>
</g>
<g>
</g>
<g>
</g>
<g>
</g>
<g>
</g>
<g>
</g>
<g>
</g>
<g>
</g>
<g>
</g>
<g>
</g>
<g>
</g>
<g>
</g>
</svg>
