<?xml version="1.0" encoding="iso-8859-1"?>
<!-- Generator: Adobe Illustrator 19.0.0, SVG Export Plug-In . SVG Version: 6.00 Build 0)  -->
<svg version="1.1" id="Capa_1" xmlns="http://www.w3.org/2000/svg" xmlns:xlink="http://www.w3.org/1999/xlink" x="0px" y="0px"
	 viewBox="0 0 400 400" style="enable-background:new 0 0 400 400;" xml:space="preserve">
<path style="fill:#FFDC69;" d="M312,0H112C94.328,0,80,14.328,80,32v8H32C14.328,40,0,54.328,0,72v40c0,17.672,14.328,32,32,32h48
	v56v104v32c0,17.68,14.32,32,32,32h24h24c0,17.672,14.328,32,32,32h96c17.672,0,32-14.328,32-32h24h24c17.672,0,32-14.328,32-32V88
	v-8L320,0H312z M272,72c0-17.672-14.328-32-32-32C257.68,40,272,54.32,272,72z M272,112c0,17.68-14.32,32-32,32
	C257.672,144,272,129.672,272,112z"/>
<path style="fill:#FF8C5A;" d="M272,72v40c0,17.672-14.328,32-32,32H32c-17.672,0-32-14.328-32-32V72c0-17.672,14.328-32,32-32h208
	C257.672,40,272,54.328,272,72z"/>
<path style="fill:#FEEC9F;" d="M288,400h-96c-17.672,0-32-14.328-32-32v-80c0-17.672,14.328-32,32-32h96c17.672,0,32,14.328,32,32
	v80C320,385.672,305.672,400,288,400z"/>
<path style="fill:#FFB855;" d="M320,0h-8v56c0,17.672,14.328,32,32,32h56v-8L320,0z"/>
<g>
	<polygon style="fill:#FFFFFF;" points="232,368 208,368 208,352 216,352 216,306.584 272,284.184 272,360 248,360 248,344 256,344 
		256,307.816 232,317.416 	"/>
	<rect x="24" y="104" style="fill:#FFFFFF;" width="16" height="16"/>
	<path style="fill:#FFFFFF;" d="M92.672,119.96h15.008V64.168H91.432l-8.368,23.048l-2.368,6.976l-2.376-7l-8.496-22.48
		l-0.208-0.544h-16.24v55.792h14.84v-16.824c0-3.6-0.504-8.472-1.032-12.88l2.24,6.536l7.704,18.752h6.456l7.72-18.792l2.44-6.84
		c-0.536,4.488-1.072,9.528-1.072,13.224L92.672,119.96L92.672,119.96z"/>
	<path style="fill:#FFFFFF;" d="M117.936,64.168v55.792h16.008v-17.152h5.816c10.376,0,22.496-5.192,22.496-19.824
		c0-12.312-7.784-18.824-22.496-18.824h-21.824V64.168z M133.944,77.168h5.152c5.248,0,7.488,1.744,7.488,5.824
		c0,4.528-2.512,6.824-7.488,6.824h-5.152V77.168z"/>
	<path style="fill:#FFFFFF;" d="M204.344,80.24c0-9.856-7.48-15.744-19.992-15.744c-6.264,0-12.048,2.296-17.688,7.024l-0.64,0.536
		l8.224,9.96l0.656-0.552c3.16-2.672,5.496-4.128,8.784-4.128c3.136,0,4.648,1.304,4.648,3.992c0,2.4-1.2,5.16-10.64,5.16h-0.84
		v11.664h0.84c11.384,0,12.304,2.488,12.304,5.488c0,3.616-4.264,4.16-6.816,4.16c-3.28,0-6.92-1.696-10.248-4.776l-0.696-0.648
		l-7.44,10.296l0.432,0.504c4.376,5.096,11.104,7.784,19.464,7.784c12.552,0,21.32-6.712,21.32-16.328
		c0-6.056-3.256-10.592-9.2-12.92C201.808,89.08,204.344,85.224,204.344,80.24z"/>
</g>
<g>
</g>
<g>
</g>
<g>
</g>
<g>
</g>
<g>
</g>
<g>
</g>
<g>
</g>
<g>
</g>
<g>
</g>
<g>
</g>
<g>
</g>
<g>
</g>
<g>
</g>
<g>
</g>
<g>
</g>
</svg>
